<?xml version="1.0" encoding="utf-8"?>
<!-- Generator: Adobe Illustrator 22.0.1, SVG Export Plug-In . SVG Version: 6.00 Build 0)  -->
<svg version="1.1" id="Capa_1" xmlns="http://www.w3.org/2000/svg" xmlns:xlink="http://www.w3.org/1999/xlink" x="0px" y="0px"
	 viewBox="0 0 128 79.9" style="enable-background:new 0 0 128 79.9;" xml:space="preserve">
<linearGradient id="SVGID_1_" gradientUnits="userSpaceOnUse" x1="117.6791" y1="33.4665" x2="17.2319" y2="51.5971">
	<stop  offset="9.190644e-02" style="stop-color:#8EC658"/>
	<stop  offset="1" style="stop-color:#70A63B"/>
</linearGradient>
<path style="fill:url(#SVGID_1_);" d="M88.4,7.9c-10.2,0-19.2,4.9-24.8,12.5c3.8,5.2,6.1,11.6,6.1,18.5c0,6.9-2.2,13.2-6,18.3
	c5.6,7.5,14.6,12.4,24.7,12.4c17,0,30.8-13.8,30.8-30.8C119.2,21.7,105.4,7.9,88.4,7.9z"/>
<linearGradient id="SVGID_2_" gradientUnits="userSpaceOnUse" x1="68.0938" y1="33.5779" x2="-33.276" y2="51.8751">
	<stop  offset="5.103643e-04" style="stop-color:#52B6D1"/>
	<stop  offset="1" style="stop-color:#2D50CE"/>
</linearGradient>
<path style="fill:url(#SVGID_2_);" d="M63.6,20.4c-5.7-7.7-14.8-12.6-25-12.6C21.4,7.8,7.4,21.7,7.4,38.9C7.4,56.1,21.4,70,38.5,70
	c10.3,0,19.5-5,25.2-12.8c-3.9-5.2-6.2-11.6-6.2-18.5C57.6,31.9,59.8,25.5,63.6,20.4z"/>
<linearGradient id="SVGID_3_" gradientUnits="userSpaceOnUse" x1="116.9119" y1="29.2164" x2="16.4648" y2="47.347">
	<stop  offset="9.190644e-02" style="stop-color:#8EC658"/>
	<stop  offset="1" style="stop-color:#70A63B"/>
</linearGradient>
<path style="fill:url(#SVGID_3_);" d="M63.6,20.4c-3.8,5.1-6,11.5-6,18.3c0,6.9,2.3,13.3,6.2,18.5c3.8-5.1,6-11.5,6-18.3
	C69.7,32,67.4,25.6,63.6,20.4z"/>
<path style="fill:#1FDB6A;" d="M63.6,20.4c-3.8,5.1-6,11.5-6,18.3c0,6.9,2.3,13.3,6.2,18.5c3.8-5.1,6-11.5,6-18.3
	C69.7,32,67.4,25.6,63.6,20.4z"/>
<path style="fill:#FFFFFF;" d="M38.3,50.5c-2.5,0.1-5.1,0-7.5-0.6c-0.4-0.1-0.8-0.3-1.3-0.4c-2.7-1-2.7-3.8-1-5.4
	c1.6-1.5,3.5-2.4,5.4-3.2c1.8-0.7,2-1.8,0.9-3.3c-1.6-2-2.4-4.3-2.3-6.9c0.1-2.9,2-5.2,4.7-5.7c2.8-0.5,5.5,0.8,6.5,3.2
	c1,2.3,0.7,4.6-0.3,6.9c-0.4,1-1,1.9-1.7,2.8c-1,1.2-0.6,2.4,0.8,3c2.1,0.8,4.1,1.7,5.7,3.3c1.5,1.5,1.6,4.4-1,5.3
	c-1.8,0.7-3.7,0.9-5.6,1C40.5,50.5,39.4,50.5,38.3,50.5z"/>
<path style="fill:#FFFFFF;" d="M85.2,34.7c-1.7,0-3.4,0-5.1-0.4c-0.3-0.1-0.6-0.2-0.9-0.3c-1.9-0.7-1.8-2.6-0.7-3.6
	c1.1-1,2.4-1.6,3.7-2.2c1.2-0.5,1.4-1.2,0.6-2.2c-1.1-1.4-1.6-2.9-1.6-4.7c0.1-2,1.3-3.5,3.2-3.9c1.9-0.3,3.8,0.6,4.4,2.2
	c0.7,1.6,0.4,3.1-0.2,4.7c-0.3,0.7-0.7,1.3-1.1,1.9c-0.7,0.8-0.4,1.6,0.6,2c1.4,0.5,2.8,1.1,3.9,2.2c1,1,1.1,3-0.7,3.6
	c-1.2,0.4-2.5,0.6-3.8,0.7C86.7,34.7,85.9,34.7,85.2,34.7z"/>
<path style="fill:#FFFFFF;" d="M103.4,44.9c-1.7,0-3.4,0-5.1-0.4c-0.3-0.1-0.6-0.2-0.9-0.3c-1.9-0.7-1.8-2.6-0.7-3.6
	c1.1-1,2.4-1.6,3.7-2.2c1.2-0.5,1.4-1.2,0.6-2.2c-1.1-1.4-1.6-2.9-1.6-4.7c0.1-2,1.3-3.5,3.2-3.9c1.9-0.3,3.8,0.6,4.4,2.2
	c0.7,1.6,0.4,3.1-0.2,4.7c-0.3,0.7-0.7,1.3-1.1,1.9c-0.7,0.8-0.4,1.6,0.6,2c1.4,0.5,2.8,1.1,3.9,2.2c1,1,1.1,3-0.7,3.6
	c-1.2,0.4-2.5,0.6-3.8,0.7C104.9,44.9,104.1,44.9,103.4,44.9z"/>
<path style="fill:#FFFFFF;" d="M85.6,59.7c-1.7,0-3.4,0-5.1-0.4c-0.3-0.1-0.6-0.2-0.9-0.3c-1.9-0.7-1.8-2.6-0.7-3.6
	c1.1-1,2.4-1.6,3.7-2.2c1.2-0.5,1.4-1.2,0.6-2.2c-1.1-1.4-1.6-2.9-1.6-4.7c0.1-2,1.3-3.5,3.2-3.9c1.9-0.3,3.8,0.6,4.4,2.2
	c0.7,1.6,0.4,3.1-0.2,4.7c-0.3,0.7-0.7,1.3-1.1,1.9c-0.7,0.8-0.4,1.6,0.6,2c1.4,0.5,2.8,1.1,3.9,2.2c1,1,1.1,3-0.7,3.6
	c-1.2,0.4-2.5,0.6-3.8,0.7C87.1,59.7,86.3,59.7,85.6,59.7z"/>
</svg>
