<?xml version="1.0" encoding="utf-8"?>
<!-- Generator: Adobe Illustrator 22.0.1, SVG Export Plug-In . SVG Version: 6.00 Build 0)  -->
<svg version="1.1" id="Capa_2_1_" xmlns="http://www.w3.org/2000/svg" xmlns:xlink="http://www.w3.org/1999/xlink" x="0px" y="0px"
	 viewBox="0 0 150.8 60" style="enable-background:new 0 0 150.8 60;" xml:space="preserve">
<style type="text/css">
	.st0{fill:#FFFFFF;}
	.st1{fill:#EF9F2B;}
</style>
<g>
	<path class="st0" d="M16.5,38.6c0,3.5-3.3,5.1-6.4,5.1c-3.4,0-6-1.6-6.9-4l2.4-0.9c0.5,1.5,2.2,2.4,4.5,2.4c1.5,0,3.8-0.5,3.8-2.6
		c0-1.3-0.9-1.9-4-2.5c-2.6-0.5-6-1.2-6.5-4.3c-0.4-3,2.2-5.5,6.1-5.5c3.1,0,5.4,1.4,6.2,3.6l-2.4,0.9c-0.4-1.2-1.8-2-3.7-2
		C6.9,28.7,5.7,30,6,31.3c0.2,1.3,1.8,1.7,4.4,2.3C13.3,34.2,16.5,35.3,16.5,38.6z"/>
	<path class="st0" d="M35.8,34.9c0,4.8-3.5,8.7-8.6,8.7c-5,0-8.5-3.9-8.5-8.7c0-4.8,3.5-8.7,8.5-8.7C32.3,26.2,35.8,30.1,35.8,34.9z
		 M33.1,34.9c0-3.5-2.3-6.3-5.9-6.3s-5.8,2.8-5.8,6.3c0,3.5,2.2,6.2,5.8,6.2S33.1,38.4,33.1,34.9z"/>
	<path class="st0" d="M51.6,38.6l2.3,1.1c-1.5,2.4-4.1,3.9-7.2,3.9c-5,0-8.5-3.9-8.5-8.7c0-4.8,3.4-8.7,8.4-8.7c3.2,0,5.8,1.6,7.3,4
		l-2.3,1.1c-1.1-1.5-2.8-2.6-5-2.6c-3.6,0-5.8,2.8-5.8,6.3c0,3.5,2.2,6.2,5.8,6.2C48.8,41.1,50.5,40.2,51.6,38.6z"/>
	<path class="st0" d="M56.8,21.8c0-0.8,0.7-1.4,1.5-1.4c0.8,0,1.5,0.6,1.5,1.4c0,0.8-0.7,1.4-1.5,1.4C57.5,23.2,56.8,22.6,56.8,21.8
		z M57,26.5h2.7v16.9H57V26.5z"/>
	<path class="st0" d="M74.7,43.4v-2c-1.6,1.3-3.6,2.3-6.1,2.3c-3.3,0-5.7-1.5-5.7-4.4c0-3.3,2.7-4.8,8.1-5.7c2.7-0.4,3.8-0.9,3.8-2
		c0-1.2-0.7-3-4-3c-3.1,0-4,1.5-4.4,2.9L64,30.9c0.5-2.3,2.5-4.7,6.8-4.7c4.1,0,6.5,2.2,6.5,5.8c0,3.4,0,11.3,0,11.3H74.7z
		 M74.8,36.1v-0.8c-1,0.2-2.1,0.3-3.4,0.5c-3.8,0.6-5.7,1.3-5.7,3.2s2.2,2.2,3.1,2.2C72.2,41.2,74.8,39.1,74.8,36.1z"/>
	<path class="st0" d="M83.6,17.1v26.3H81V17.1H83.6z"/>
</g>
<g>
	<g>
		<path class="st1" d="M102.6,27.5c-1.3-1.1-3-1.6-4.9-1.6c-4.9,0-8.3,3.7-8.3,8.9s3.4,8.9,8.3,8.9c1.9,0,3.6-0.6,4.9-1.6v1.4h4v-27
			h-4V27.5z M98.1,39.7c-3.3,0-4.4-2.7-4.4-5s1.2-5,4.4-5c3.2,0,4.4,2.7,4.4,5S101.3,39.7,98.1,39.7z"/>
		<path class="st1" d="M120.8,35.7c0,3.5-2.2,4-3.5,4c-2.1,0-3.3-1.5-3.3-4.2v-9.4h-4v9.7c0,5,2.4,7.8,6.7,7.8
			c1.5,0,2.9-0.5,4.1-1.4v1.2h4V26.1h-4V35.7z"/>
		<path class="st1" d="M136.3,25.9c-5,0-8.7,3.8-8.7,8.9s3.7,8.9,8.7,8.9s8.7-3.8,8.7-8.9S141.3,25.9,136.3,25.9z M136.3,39.7
			c-3.1,0-4.5-2.5-4.5-5c0-2.5,1.4-5,4.5-5c3.3,0,4.5,2.7,4.5,5C140.8,37.2,139.4,39.7,136.3,39.7z"/>
	</g>
	<rect x="110.8" y="16.5" class="st1" width="33.8" height="3"/>
</g>
</svg>
