<svg xmlns="http://www.w3.org/2000/svg" width="90.9" height="25.8" viewBox="-434 268.2 90.9 25.8"><title>logo-partner-instagram</title><path fill="#273333" d="M-382 283.9c-.2.3-.4.5-.6.7-.5.5-1.2.9-2 1-.7.1-1.5-.1-2.1-.5-.4-.3-.7-.7-.9-1.1 0-.1-.1-.1-.1-.2-.2.3-.3.6-.5.8-.8 1-2.2 1.3-3.3.5l-.3-.3c-.4-.4-.7-.9-.7-1.5-.1.2-.2.3-.3.5-.4.6-.9 1.1-1.6 1.4-.5.3-1.1.4-1.7.4-.6 0-1.2-.3-1.6-.7-.6-.6-1-1.3-1.2-2.1 0 0 0-.1-.1-.1-.2.6-.5 1.2-.9 1.7s-.9.9-1.5 1.1c-.6.2-1.1.1-1.6-.2-.7-.5-1.3-1.2-1.5-2-.2-.6-.3-1.1-.3-1.7v-.1c-.3.6-.6 1.2-1 1.7-.7 1-1.7 1.8-2.9 2.2-.6.2-1.2.3-1.8.2-.8 0-1.5-.2-2.2-.5-.1-.1-.2-.1-.3-.2-.2-.2-.3-.5-.2-.7.1-.4.3-.8.6-1.1.2-.3.6-.3.8-.1.3.2.6.4 1 .6.3.2.5.2.8.2.4-.1.7-.4.8-.8.2-.7.1-1.4-.3-2-.4-.6-.9-1.1-1.5-1.6-.2-.2-.4-.3-.6-.5-.2.4-.5.8-.7 1.2l-1.8 3c-.3.6-.8 1.1-1.2 1.5-.4.4-.8.7-1.3.8-.5.2-1 .1-1.4-.3-.3-.3-.5-.6-.5-1-.1-.5-.2-.9-.2-1.4-.1-.6-.1-1.3-.1-1.9 0-.7 0-1.3.1-2 0-.6 0-1.1.1-1.7 0-.4 0-.8.1-1.1v-.2c-.1 0-.1.1-.2.1-.5.5-.9 1-1.2 1.6-.6 1.1-1.1 2.2-1.5 3.4-.3.9-.5 1.8-.7 2.7-.1.4-.2.9-.2 1.3 0 .1-.1.3-.2.3-.3.1-.6.1-1 .1-.2 0-.4-.1-.6-.2-.3-.2-.5-.5-.5-.9-.1-.3-.1-.6-.1-.9v-6.2-3c0-.2.1-.4.3-.4.6 0 1.2.1 1.7.5.1.1.2.2.2.3v5.1c.1-.4.3-.8.4-1.2.3-.8.6-1.5.9-2.2.3-.7.7-1.3 1.3-1.8.4-.4 1-.6 1.6-.6.3 0 .7.1.9.3.3.2.6.4.8.6.2.2.4.5.3.8v1.5c0 .7-.1 1.3-.1 2v2.4c0 .4.1.8.1 1.2 0 .1.1.2.1.3.1.1.3.1.5 0 .3-.3.6-.6.8-1 .6-.9 1.1-1.9 1.6-2.8.2-.4.5-.9.7-1.3-.2-.3-.3-.6-.5-.9-.2-.5-.2-1.1 0-1.6.3-.8.9-1.4 1.8-1.7.4-.1.8-.1 1.2 0 .5.1.8.6.6 1.1-.2.9-.6 1.7-1.2 2.4.3.2.6.4.8.6.7.5 1.4 1.1 2.1 1.7.5.5.8 1.1.9 1.7v1c.3-.3.6-.6.8-.9.5-.7.8-1.4 1-2.2v-.2-5.6h-2.5c-.2 0-.3-.1-.3-.3-.1-.4 0-.7.1-1.1 0-.1 0-.1.1-.2.1-.2.3-.4.5-.4h2.2v-.1-1.7c0-.4 0-.9.1-1.3.1-.5.3-.6.8-.5.5.1 1 .2 1.5.4.2.1.4.1.4.4v1.7c0 .4 0 .7-.1 1.1 0 .1.1.1.1.1.6 0 1.1 0 1.7.1.5 0 1 .1 1.4.1.1 0 .3.1.3.3 0 .4-.1.8-.3 1.1-.1.2-.3.2-.5.2h-2.8c0 .2-.1.5-.1.7v7.1c0 .7.1 1.3.4 2 .1.1.1.3.2.4.2.2.4.2.7.1.4-.2.7-.5 1-.9.4-.6.7-1.3.8-2 .1-.3 0-.5 0-.8.1-.6.1-1.2.2-1.9s.3-1.3.6-1.9c.2-.5.5-.9.8-1.3.3-.4.7-.7 1.1-.9.4-.2.9-.2 1.3-.2.8.1 1.5.5 2 1.1 0 0 0 .1.1.1v-.3c0-.3.2-.5.5-.5.6 0 1.1.1 1.6.4.2.1.3.3.2.5v3.7c0 .7-.1 1.4 0 2.2 0 .8.1 1.6.3 2.4.1.4.5.7.9.7.3 0 .6-.2.7-.5.3-.4.5-.8.5-1.2v-.5c0-.5-.1-1.1-.1-1.6 0-1.2.2-2.4.6-3.5.3-.8.7-1.6 1.4-2.2.4-.4 1-.7 1.6-.7.5-.1 1 0 1.4.2.4.2.8.5 1 .8l.2.2v-.4c0-.3.3-.4.5-.5.6 0 1.2.1 1.7.4.1.1.1.2.1.3v7.6c.2-.3.3-.5.5-.7.4-.6.7-1.2 1-1.8.5-1 .9-2 1.1-3 0-.1 0-.1-.1-.2-.4-.3-.6-.7-.6-1.2-.1-.7.3-1.4.9-1.8.5-.3 1.1-.3 1.5 0 .2.1.4.4.4.7v1c.2 0 .4-.1.6-.1.6-.1 1.2-.3 1.8-.3.4-.1.7 0 1 .1.3.2.5.5.5.9s0 .8-.2 1.1c-.1.7-.3 1.5-.4 2.2-.1.4-.1.9-.1 1.3v1.1c0 .7.2 1.4.6 2.1.2.4.7.5 1.1.3.1 0 .2-.1.2-.2.3-.4.6-.8.6-1.3 0-.2 0-.3-.1-.5 0-.2-.1-.5-.1-.8v-1c0-.7.1-1.4.2-2.1.2-1.1.6-2.1 1.2-3 .4-.6 1-1.1 1.7-1.3.9-.3 1.8 0 2.5.6.2.2.4.3.6.5l-.1.1v-.3c0-.3.2-.5.5-.5.5 0 1 .1 1.5.3.3.1.6.5.5.8v6.4c0 .6.1 1.2.3 1.8.1.4.5.7.9.6.2 0 .3-.1.5-.3.4-.5.7-1.1.9-1.7.2-.5.2-1 .2-1.6v-2.5-3.1-.5c0-.3.3-.4.6-.4.4.1.9.2 1.3.3.3 0 .5.3.4.6v3.7c.1-.4.2-.8.4-1.1.3-1 .7-2 1.1-2.9.2-.5.7-.7 1.2-.6.4.1.8.2 1.1.5.3.2.5.6.6 1v1.8c0 .5 0 1 .1 1.5 0 .4.1.8.1 1.3 0 .1 0 .2.1.3.2-1.1.4-2.1.7-3.1.3-.9.6-1.8 1-2.7.2-.5.7-.8 1.2-.7h.1c.5.1 1 .3 1.4.6.4.3.5.7.4 1.1v1.5c0 1.1-.1 2.2 0 3.2 0 .8.1 1.6.3 2.3.1.3.2.6.4.9.3.3.7.2 1 0l.1-.1c.2-.4.4-.8.5-1.3.1-.3.1-.5.2-.8 0-.2.2-.3.3-.4.2 0 .4.1.5.3v.9c-.1.5-.3 1.1-.4 1.6-.2.7-.7 1.2-1.4 1.4-.8.2-1.6.1-2.2-.5-.6-.5-1-1.3-1.2-2.1-.1-.4-.1-.9-.2-1.3-.1-1.4-.2-2.9-.1-4.3v-.2-.2h-.1c-.1.2-.2.4-.3.7-.2.7-.5 1.3-.7 2-.2.7-.4 1.4-.5 2.2-.1.6-.2 1.3-.2 1.9v.7c0 .2-.2.3-.3.4-.8.3-1.7-.1-2-.9 0-.1-.1-.2-.1-.3-.1-.6-.3-1.2-.3-1.8-.1-.5-.1-1-.2-1.5 0-.3-.1-.7-.1-1 0-.6 0-1.3-.1-2 0-.1 0-.2-.1-.3l-.2.2c-.4.6-.7 1.3-.9 2-.2.7-.4 1.4-.5 2.1-.1.4-.1.8-.1 1.2 0 .6-.1 1.3-.1 2v.7c0 .3-.3.5-.5.5-.5.1-1.1 0-1.6-.1-.1 0-.2-.1-.3-.2-.2-.1-.2-.3-.2-.4 0-.3 0-.6-.1-1-.2.4-.5.8-.8 1.2-.5.5-1.2.7-1.9.5-1-.2-1.8-1-1.9-2 0-.1 0-.1-.1-.2-.1.2-.2.4-.4.5-.5.8-1.3 1.4-2.2 1.6-.9.3-1.8.1-2.5-.5l-.5-.5c-.1-.2-.3-.4-.4-.6-.2.4-.5.8-.8 1.1-.4.4-1 .6-1.6.6-.6 0-1.1-.3-1.5-.6-.8-.6-1.2-1.5-1.4-2.5-.1-.6-.2-1.3-.1-2 0-.6.1-1.2.2-1.7.1-.6.2-1.2.3-1.7 0-.1 0-.2-.2-.2h-1.5c-.1 0-.1 0-.1.1-.4 1.2-.9 2.3-1.5 3.3-.5 1-1.2 2-1.9 2.9l-.9 1.2s0 .1-.1.1v3.1c0 1.3-.2 2.5-.6 3.7-.2.6-.6 1.2-1.1 1.6-.4.4-1 .7-1.5.8-1.1.3-2.2 0-3-.7-.5-.4-.8-1-.8-1.6-.1-.9.2-1.8.7-2.5.6-.8 1.3-1.5 2-2.2.2-.2.4-.3.5-.5l1.2-1.1s.1 0 .1-.1c.2-.1.4-.3.3-.6.5.4.5.2.5-.1zm-10.9-4.9c0-.3-.1-.7-.1-1.2-.1-.5-.2-.9-.4-1.4-.4-.6-1.1-.8-1.8-.4h-.1c-.4.3-.7.7-.9 1.2-.3.9-.5 1.8-.5 2.7 0 .6 0 1.2.1 1.8 0 .6.2 1.2.5 1.7.2.5.8.8 1.4.6.1-.1.3-.1.4-.3.5-.4.8-1 1-1.6.3-1 .4-2 .4-3.1zm26 1.4c0 .4 0 .7.1 1.1 0 .6.1 1.1.3 1.6.1.4.4.7.7.9.4.2.9.1 1.3-.3s.6-.8.8-1.2c.3-1 .5-2 .5-3 0-.6 0-1.2-.1-1.8 0-.5-.2-1-.5-1.4-.3-.4-.9-.6-1.4-.5-.4.1-.8.4-1 .8-.4.7-.6 1.4-.6 2.2-.1.6-.1 1.1-.1 1.6zm-15.2-1.2v-.8c0-.2 0-.5-.1-.7 0-.4-.2-.8-.4-1.2-.2-.5-.8-.8-1.4-.6-.5.1-.9.5-1.1 1-.5 1-.7 2-.7 3.1-.1.7 0 1.4.1 2.2.1.6.3 1.1.6 1.6s.9.6 1.4.3c.5-.3.8-.8 1-1.4.4-1.2.6-2.4.6-3.5zm.2 7.5c-.5.4-.9.9-1.3 1.3-.5.5-.9 1.1-1.3 1.6-.4.6-.6 1.3-.7 2 0 .7.5 1.2 1.1 1.2.2 0 .3 0 .5-.1.5-.2.9-.6 1.1-1.1.3-.9.5-1.9.5-2.9v-1.8c.2.1.1 0 .1-.2zm-47.5-16.9c-.1 0-.1.1-.2.1-.5.4-.9.9-1.2 1.5-.4.7-.7 1.5-.9 2.3-.1.7-.2 1.3-.2 2 0 .8.3 1.5.7 2.2.1.1.2.3.2.5 0 .3-.2.4-.6.3-.5-.1-.9-.4-1.3-.7-.5-.4-.9-1-1-1.6-.1-.3-.1-.5-.2-.8-.1-1.2.2-2.4.9-3.5.3-.6.7-1.2 1.2-1.7.5-.6 1.1-1.1 1.8-1.6.3-.2.7-.4 1-.5.4-.1.9-.1 1.3.1.3.1.6.3.8.5.1.1.1.2.1.4V282.4c0 .8-.1 1.6-.3 2.4-.2 1-.7 1.8-1.4 2.5-.3.3-.6.5-1 .6h-.3c-.2 0-.2-.2-.2-.4.1-.4.3-.9.4-1.3.1-.4.1-.8.2-1.2.1-1.6.1-3.2.1-4.9v-6-3.6c.1-.3.1-.5.1-.7z"/></svg>