<svg xmlns="http://www.w3.org/2000/svg" width="25.3" height="20.6" viewBox="-466 270.4 25.3 20.6"><title>logo-partner-twitter</title><path fill="#273333" d="M-440.7 272.9c-.9.4-2 .7-3 .8 1.1-.6 1.9-1.7 2.3-2.9-1 .6-2.1 1-3.3 1.3-2-2.1-5.3-2.2-7.3-.2-1.3 1.3-1.9 3.2-1.5 5-4.2-.2-8.1-2.2-10.7-5.4-1.4 2.4-.7 5.4 1.6 6.9-.8 0-1.6-.2-2.4-.6v.1c0 2.5 1.7 4.6 4.2 5.1-.4.1-.9.2-1.4.2-.3 0-.7 0-1-.1.7 2.1 2.6 3.6 4.8 3.6-1.8 1.4-4.1 2.2-6.4 2.2-.4 0-.8 0-1.2-.1 2.4 1.5 5.1 2.3 8 2.3 8.1.1 14.7-6.5 14.8-14.6v-.2-.7c.9-.8 1.8-1.7 2.5-2.7z"/></svg>