<?xml version="1.0" encoding="utf-8"?>
<!-- Generator: Adobe Illustrator 22.0.1, SVG Export Plug-In . SVG Version: 6.00 Build 0)  -->
<svg version="1.1" id="Capa_2_1_" xmlns="http://www.w3.org/2000/svg" xmlns:xlink="http://www.w3.org/1999/xlink" x="0px" y="0px"
	 viewBox="0 0 150.8 60" style="enable-background:new 0 0 150.8 60;" xml:space="preserve">
<style type="text/css">
	.st0{fill:url(#SVGID_1_);}
	.st1{fill:url(#SVGID_2_);}
	.st2{fill:url(#SVGID_3_);}
	.st3{fill:#4B4B4B;}
	.st4{fill:url(#SVGID_4_);}
</style>
<linearGradient id="SVGID_1_" gradientUnits="userSpaceOnUse" x1="98.7394" y1="41.5936" x2="98.7394" y2="13.659">
	<stop  offset="0" style="stop-color:#8EC658"/>
	<stop  offset="5.478501e-03" style="stop-color:#8DC65A"/>
	<stop  offset="0.1423" style="stop-color:#7BC17E"/>
	<stop  offset="0.2848" style="stop-color:#6CBD9C"/>
	<stop  offset="0.4355" style="stop-color:#61BAB3"/>
	<stop  offset="0.5961" style="stop-color:#58B8C4"/>
	<stop  offset="0.7734" style="stop-color:#54B6CE"/>
	<stop  offset="1" style="stop-color:#52B6D1"/>
</linearGradient>
<path class="st0" d="M103.6,25.1c-1.4-1.1-3.2-1.7-5.2-1.7c-5.1,0-8.7,3.7-8.7,9.1s3.6,9.1,8.7,9.1c2,0,3.8-0.6,5.2-1.7v1.4h4.3
	V13.7h-4.3V25.1z M98.8,37.6c-3.4,0-4.6-2.7-4.6-5.1s1.2-5.1,4.6-5.1c3.4,0,4.6,2.7,4.6,5.1S102.2,37.6,98.8,37.6z"/>
<linearGradient id="SVGID_2_" gradientUnits="userSpaceOnUse" x1="119.0961" y1="41.5936" x2="119.0961" y2="23.6165">
	<stop  offset="0" style="stop-color:#8EC658"/>
	<stop  offset="5.478501e-03" style="stop-color:#8DC65A"/>
	<stop  offset="0.1423" style="stop-color:#7BC17E"/>
	<stop  offset="0.2848" style="stop-color:#6CBD9C"/>
	<stop  offset="0.4355" style="stop-color:#61BAB3"/>
	<stop  offset="0.5961" style="stop-color:#58B8C4"/>
	<stop  offset="0.7734" style="stop-color:#54B6CE"/>
	<stop  offset="1" style="stop-color:#52B6D1"/>
</linearGradient>
<path class="st1" d="M122.6,33.5c0,3.6-2.3,4.1-3.7,4.1c-2.2,0-3.5-1.5-3.5-4.3v-9.6h-4.2v10c0,5.1,2.6,8,7,8c1.6,0,3.1-0.5,4.3-1.5
	v1.2h4.3V23.6h-4.3V33.5z"/>
<linearGradient id="SVGID_3_" gradientUnits="userSpaceOnUse" x1="138.9466" y1="41.5936" x2="138.9466" y2="23.3685">
	<stop  offset="0" style="stop-color:#8EC658"/>
	<stop  offset="5.478501e-03" style="stop-color:#8DC65A"/>
	<stop  offset="0.1423" style="stop-color:#7BC17E"/>
	<stop  offset="0.2848" style="stop-color:#6CBD9C"/>
	<stop  offset="0.4355" style="stop-color:#61BAB3"/>
	<stop  offset="0.5961" style="stop-color:#58B8C4"/>
	<stop  offset="0.7734" style="stop-color:#54B6CE"/>
	<stop  offset="1" style="stop-color:#52B6D1"/>
</linearGradient>
<path class="st2" d="M138.9,23.4c-5.2,0-9.1,3.9-9.1,9.1s3.9,9.1,9.1,9.1s9.1-3.9,9.1-9.1S144.2,23.4,138.9,23.4z M138.9,37.6
	c-3.2,0-4.7-2.6-4.7-5.1c0-2.5,1.5-5.1,4.7-5.1c3.5,0,4.7,2.7,4.7,5.1C143.7,35,142.2,37.6,138.9,37.6z"/>
<g>
	<path class="st3" d="M16.1,36.4c0,3.7-3.4,5.3-6.7,5.3c-3.6,0-6.3-1.7-7.3-4.1l2.5-1C5.2,38.1,6.9,39,9.4,39c1.5,0,3.9-0.5,3.9-2.7
		c0-1.4-1-1.9-4.2-2.6c-2.8-0.5-6.3-1.2-6.8-4.5c-0.5-3.2,2.3-5.8,6.4-5.8c3.2,0,5.7,1.5,6.5,3.8l-2.6,1c-0.5-1.3-1.8-2.1-3.9-2.1
		C6,26,4.8,27.4,5,28.8c0.2,1.4,1.9,1.8,4.6,2.4C12.7,31.8,16.1,33,16.1,36.4z"/>
	<path class="st3" d="M36.2,32.6c0,5.1-3.7,9.1-9,9.1c-5.2,0-8.9-4-8.9-9.1c0-5.1,3.6-9.1,8.9-9.1C32.5,23.5,36.2,27.5,36.2,32.6z
		 M33.4,32.6c0-3.6-2.4-6.6-6.2-6.6s-6.1,2.9-6.1,6.6c0,3.6,2.3,6.5,6.1,6.5S33.4,36.2,33.4,32.6z"/>
	<path class="st3" d="M52.8,36.4l2.4,1.1c-1.5,2.5-4.2,4.1-7.6,4.1c-5.3,0-8.9-4-8.9-9.1c0-5.1,3.6-9.1,8.8-9.1
		c3.4,0,6.1,1.6,7.6,4.1l-2.4,1.1c-1.1-1.6-2.9-2.7-5.2-2.7c-3.7,0-6,2.9-6,6.6c0,3.6,2.3,6.5,6.1,6.5
		C49.9,39.1,51.6,38.1,52.8,36.4z"/>
	<path class="st3" d="M58.2,18.9c0-0.8,0.7-1.5,1.5-1.5c0.9,0,1.6,0.7,1.6,1.5c0,0.8-0.7,1.5-1.6,1.5C58.9,20.3,58.2,19.7,58.2,18.9
		z M58.4,23.7h2.8v17.7h-2.8V23.7z"/>
	<path class="st3" d="M76.9,41.4v-2.1c-1.6,1.4-3.8,2.4-6.4,2.4c-3.4,0-5.9-1.6-5.9-4.6c0-3.5,2.8-5.1,8.5-5.9c2.9-0.4,4-1,3.9-2.1
		c0-1.2-0.7-3.2-4.2-3.2c-3.3,0-4.2,1.5-4.6,3l-2.4-0.5c0.5-2.4,2.6-4.9,7.2-4.9c4.3,0,6.8,2.3,6.8,6.1c0,3.6,0,11.8,0,11.8H76.9z
		 M77,33.8V33c-1,0.2-2.2,0.3-3.6,0.5c-4,0.6-6,1.4-6,3.3c0,1.9,2.3,2.3,3.3,2.3C74.3,39.2,77,37,77,33.8z"/>
	<path class="st3" d="M86.3,13.9v27.5h-2.8V13.9H86.3z"/>
</g>
<linearGradient id="SVGID_4_" gradientUnits="userSpaceOnUse" x1="129.8844" y1="16.7828" x2="129.8844" y2="13.659">
	<stop  offset="0" style="stop-color:#8EC658"/>
	<stop  offset="5.478501e-03" style="stop-color:#8DC65A"/>
	<stop  offset="0.1423" style="stop-color:#7BC17E"/>
	<stop  offset="0.2848" style="stop-color:#6CBD9C"/>
	<stop  offset="0.4355" style="stop-color:#61BAB3"/>
	<stop  offset="0.5961" style="stop-color:#58B8C4"/>
	<stop  offset="0.7734" style="stop-color:#54B6CE"/>
	<stop  offset="1" style="stop-color:#52B6D1"/>
</linearGradient>
<rect x="112.1" y="13.7" class="st4" width="35.5" height="3.1"/>
</svg>
