<svg xmlns="http://www.w3.org/2000/svg" width="91.2" height="18" viewBox="-433 272 91.2 18"><title>logo-partner-facebook</title><path fill="#273333" d="M-424.4 272v2.8h-1.5s-1.4-.2-1.4 1.1v2.2h2.9l-.3 3h-2.6v8.5h-3.4v-8.5h-2.3v-3h2.4v-2.5c-.1-1 .2-1.9.9-2.5.8-.7 1.8-1.1 2.9-1h2.4zm8.3 6.2v1.5c-.8-1.1-2-1.8-3.4-1.8-2.6 0-4.7 2.3-4.7 6.1 0 3.7 2.1 6.1 4.7 6.1 1.4 0 2.6-.7 3.4-1.9v1.5h3.3v-11.4h-3.3zm-.2 6.9c0 1.2-1 2.2-2.2 2.2-1.2 0-2.2-1-2.2-2.2v-2.2c0-1.2 1-2.2 2.2-2.2 1.2 0 2.2 1 2.2 2.2v2.2zm29.7 4.6v-1.5c.8 1.1 2 1.8 3.4 1.8 2.6 0 4.7-2.3 4.7-6.1 0-3.7-2.1-6.1-4.7-6.1-1.4 0-2.6.7-3.4 1.9v-7.6l-3.4.4v17.1l3.4.1zm.2-6.9c0-1.2.9-2.2 2.1-2.2s2.2.9 2.2 2.1V285c0 1.2-.9 2.2-2.1 2.2s-2.2-.9-2.2-2.1V282.8zm-19.1 4.4s-2.6.1-2.6-3.2v-.2c0-3.4 2.6-3.2 2.6-3.2.8-.1 1.7.1 2.4.6l.8-2.5c-1.4-1-5.7-1.2-7.6.5-1.2 1.3-1.7 2.9-1.6 4.6-.1 1.7.5 3.4 1.6 4.6 1.9 1.8 6.2 1.6 7.6.5l-.8-2.5c-.7.7-1.6.9-2.4.8zm14.2-2.1s1.4-7.2-5.2-7.2c-6.5 0-5.6 6.5-5.6 6.5.1 4 2 5.1 5.1 5.5 1.9.2 3.8-.1 5.5-.8l-.7-2.3c-1.5.4-3 .6-4.5.6-1.1-.1-1.9-1.1-1.8-2.2h7.2zm-7.3-2.3s-.2-2.5 2.1-2.5c2.3 0 2.1 2.5 2.1 2.5h-4.2zm26.8-4.8c-4.3 0-5.7 2.6-5.7 6 0 3.6 1.8 6 5.7 6 3.1 0 5.7-2.1 5.7-6 0-3.3-1.7-6-5.7-6zm2.2 7c0 1.2-1.1 2.2-2.3 2.2-1.2 0-2.2-1-2.2-2.2v-2.2c0-1.2 1.1-2.2 2.3-2.2 1.2 0 2.2 1 2.2 2.2v2.2zm10.2-7c-4.3 0-5.7 2.6-5.7 6 0 3.6 1.8 6 5.7 6 3.1 0 5.7-2.1 5.7-6 0-3.3-1.6-6-5.7-6zm2.2 7c0 1.2-1.1 2.2-2.3 2.2-1.2 0-2.2-1-2.2-2.2v-2.2c0-1.2 1-2.2 2.2-2.2 1.2 0 2.2 1 2.2 2.2l.1 2.2zm15.4 4.7l-3.7-5.8 3.6-5.8h-3.6l-3.5 5.2v-11.2l-3.4.4v17.2h3.4v-5.9l3.7 5.9h3.5z"/></svg>